<?xml version="1.0" encoding="utf-8" standalone="no"?>
<!DOCTYPE svg PUBLIC "-//W3C//DTD SVG 1.1//EN"
  "http://www.w3.org/Graphics/SVG/1.1/DTD/svg11.dtd">
<svg xmlns:xlink="http://www.w3.org/1999/xlink" width="432pt" height="288pt" viewBox="0 0 432 288" xmlns="http://www.w3.org/2000/svg" version="1.1">
 <metadata>
  <rdf:RDF xmlns:dc="http://purl.org/dc/elements/1.1/" xmlns:cc="http://creativecommons.org/ns#" xmlns:rdf="http://www.w3.org/1999/02/22-rdf-syntax-ns#">
   <cc:Work>
    <dc:type rdf:resource="http://purl.org/dc/dcmitype/StillImage"/>
    <dc:date>2022-07-23T23:31:58.299297</dc:date>
    <dc:format>image/svg+xml</dc:format>
    <dc:creator>
     <cc:Agent>
      <dc:title>Matplotlib v3.5.1, https://matplotlib.org/</dc:title>
     </cc:Agent>
    </dc:creator>
   </cc:Work>
  </rdf:RDF>
 </metadata>
 <defs>
  <style type="text/css">*{stroke-linejoin: round; stroke-linecap: butt}</style>
 </defs>
 <g id="figure_1">
  <g id="patch_1">
   <path d="M 0 288 
L 432 288 
L 432 0 
L 0 0 
L 0 288 
z
" style="fill: none"/>
  </g>
  <g id="axes_1">
   <g id="patch_2">
    <path d="M 54 252 
L 388.8 252 
L 388.8 34.56 
L 54 34.56 
z
" style="fill: #ffffff"/>
   </g>
   <g id="matplotlib.axis_1">
    <g id="xtick_1">
     <g id="line2d_1">
      <defs>
       <path id="mf03a0040e4" d="M 0 0 
L 0 3.5 
" style="stroke: #000000; stroke-width: 0.8"/>
      </defs>
      <g>
       <use xlink:href="#mf03a0040e4" x="69.218182" y="252" style="stroke: #000000; stroke-width: 0.8"/>
      </g>
     </g>
     <g id="text_1">
      <!-- 0 -->
      <g transform="translate(66.447869 267.1)scale(0.1 -0.1)">
       <defs>
        <path id="STHeitiTC-Medium-30" d="M 1747 5184 
Q 2502 5184 2944 4547 
Q 3386 3910 3386 2723 
Q 3386 1536 2938 902 
Q 2490 269 1738 269 
Q 986 269 573 893 
Q 160 1517 160 2729 
Q 160 3942 573 4563 
Q 986 5184 1747 5184 
z
M 1760 774 
Q 2285 774 2576 1283 
Q 2867 1792 2867 2726 
Q 2867 3661 2566 4160 
Q 2266 4659 1757 4659 
Q 1248 4659 966 4160 
Q 685 3661 685 2714 
Q 685 774 1760 774 
z
" transform="scale(0.015625)"/>
       </defs>
       <use xlink:href="#STHeitiTC-Medium-30"/>
      </g>
     </g>
    </g>
    <g id="xtick_2">
     <g id="line2d_2">
      <g>
       <use xlink:href="#mf03a0040e4" x="135.38419" y="252" style="stroke: #000000; stroke-width: 0.8"/>
      </g>
     </g>
     <g id="text_2">
      <!-- 5 -->
      <g transform="translate(132.613877 267.1)scale(0.1 -0.1)">
       <defs>
        <path id="STHeitiTC-Medium-35" d="M 3194 4544 
L 1549 4544 
L 1338 3398 
Q 1613 3469 1856 3469 
Q 2477 3469 2893 3030 
Q 3309 2592 3309 1913 
Q 3309 1235 2861 752 
Q 2413 269 1664 269 
Q 1088 269 691 621 
Q 294 973 211 1587 
L 768 1587 
Q 851 1203 1107 998 
Q 1363 794 1690 794 
Q 2125 794 2438 1123 
Q 2752 1453 2752 1939 
Q 2752 2374 2480 2656 
Q 2208 2938 1747 2938 
Q 1286 2938 672 2675 
L 1120 5069 
L 3194 5069 
L 3194 4544 
z
" transform="scale(0.015625)"/>
       </defs>
       <use xlink:href="#STHeitiTC-Medium-35"/>
      </g>
     </g>
    </g>
    <g id="xtick_3">
     <g id="line2d_3">
      <g>
       <use xlink:href="#mf03a0040e4" x="201.550198" y="252" style="stroke: #000000; stroke-width: 0.8"/>
      </g>
     </g>
     <g id="text_3">
      <!-- 10 -->
      <g transform="translate(196.009573 267.1)scale(0.1 -0.1)">
       <defs>
        <path id="STHeitiTC-Medium-31" d="M 2131 384 
L 1587 384 
L 1587 4531 
L 826 4531 
L 1158 5069 
L 2131 5069 
L 2131 384 
z
" transform="scale(0.015625)"/>
       </defs>
       <use xlink:href="#STHeitiTC-Medium-31"/>
       <use xlink:href="#STHeitiTC-Medium-30" x="55.399994"/>
      </g>
     </g>
    </g>
    <g id="xtick_4">
     <g id="line2d_4">
      <g>
       <use xlink:href="#mf03a0040e4" x="267.716206" y="252" style="stroke: #000000; stroke-width: 0.8"/>
      </g>
     </g>
     <g id="text_4">
      <!-- 15 -->
      <g transform="translate(262.175581 267.1)scale(0.1 -0.1)">
       <use xlink:href="#STHeitiTC-Medium-31"/>
       <use xlink:href="#STHeitiTC-Medium-35" x="55.399994"/>
      </g>
     </g>
    </g>
    <g id="xtick_5">
     <g id="line2d_5">
      <g>
       <use xlink:href="#mf03a0040e4" x="333.882213" y="252" style="stroke: #000000; stroke-width: 0.8"/>
      </g>
     </g>
     <g id="text_5">
      <!-- 20 -->
      <g transform="translate(328.341588 267.1)scale(0.1 -0.1)">
       <defs>
        <path id="STHeitiTC-Medium-32" d="M 3360 384 
L 90 384 
L 1914 2355 
Q 2374 2842 2566 3123 
Q 2758 3405 2758 3763 
Q 2758 4122 2480 4390 
Q 2202 4659 1789 4659 
Q 1376 4659 1101 4368 
Q 826 4077 787 3539 
L 256 3539 
Q 288 4294 736 4739 
Q 1184 5184 1821 5184 
Q 2458 5184 2877 4771 
Q 3296 4358 3296 3763 
Q 3296 3328 3065 2950 
Q 2835 2573 2368 2074 
L 1293 915 
L 3360 915 
L 3360 384 
z
" transform="scale(0.015625)"/>
       </defs>
       <use xlink:href="#STHeitiTC-Medium-32"/>
       <use xlink:href="#STHeitiTC-Medium-30" x="55.399994"/>
      </g>
     </g>
    </g>
    <g id="text_6">
     <!-- hour -->
     <g transform="translate(206.182656 283.769687)scale(0.14 -0.14)">
      <defs>
       <path id="STHeitiTC-Medium-68" d="M 3501 384 
L 2970 384 
L 2970 2048 
Q 2970 2534 2941 2732 
Q 2912 2931 2809 3107 
Q 2707 3283 2531 3376 
Q 2355 3469 2108 3469 
Q 1862 3469 1638 3353 
Q 1414 3238 1254 3033 
Q 1094 2829 1033 2598 
Q 973 2368 973 1677 
L 973 384 
L 442 384 
L 442 5184 
L 973 5184 
L 973 3347 
Q 1491 3962 2202 3962 
Q 2579 3962 2886 3766 
Q 3194 3571 3347 3228 
Q 3501 2886 3501 2176 
L 3501 384 
z
" transform="scale(0.015625)"/>
       <path id="STHeitiTC-Medium-6f" d="M 2099 3962 
Q 2854 3962 3382 3418 
Q 3910 2874 3910 2112 
Q 3910 1350 3388 809 
Q 2867 269 2099 269 
Q 1331 269 806 809 
Q 282 1350 282 2112 
Q 282 2874 810 3418 
Q 1338 3962 2099 3962 
z
M 2099 774 
Q 2630 774 3004 1161 
Q 3379 1549 3379 2096 
Q 3379 2643 2998 3043 
Q 2618 3443 2096 3443 
Q 1574 3443 1196 3043 
Q 819 2643 819 2092 
Q 819 1542 1184 1158 
Q 1549 774 2099 774 
z
" transform="scale(0.015625)"/>
       <path id="STHeitiTC-Medium-75" d="M 3450 384 
L 2918 384 
L 2918 909 
Q 2400 294 1690 294 
Q 1312 294 1005 489 
Q 698 685 544 1027 
Q 390 1370 390 2080 
L 390 3872 
L 915 3872 
L 915 2208 
Q 915 1632 969 1424 
Q 1024 1216 1129 1072 
Q 1235 928 1398 857 
Q 1562 787 1795 787 
Q 2029 787 2253 902 
Q 2477 1018 2637 1222 
Q 2797 1427 2857 1657 
Q 2918 1888 2918 2579 
L 2918 3872 
L 3450 3872 
L 3450 384 
z
" transform="scale(0.015625)"/>
       <path id="STHeitiTC-Medium-72" d="M 1914 3821 
L 1638 3373 
Q 1530 3430 1427 3430 
Q 1229 3430 1069 3235 
Q 909 3040 829 2723 
Q 749 2406 749 1581 
L 749 384 
L 211 384 
L 211 3872 
L 749 3872 
L 749 3494 
Q 909 3731 1072 3846 
Q 1235 3962 1443 3962 
Q 1651 3962 1914 3821 
z
" transform="scale(0.015625)"/>
      </defs>
      <use xlink:href="#STHeitiTC-Medium-68"/>
      <use xlink:href="#STHeitiTC-Medium-6f" x="60.999985"/>
      <use xlink:href="#STHeitiTC-Medium-75" x="126.499969"/>
      <use xlink:href="#STHeitiTC-Medium-72" x="187.299957"/>
     </g>
    </g>
   </g>
   <g id="matplotlib.axis_2">
    <g id="ytick_1">
     <g id="line2d_6">
      <defs>
       <path id="m9ef4a1e34d" d="M 0 0 
L -3.5 0 
" style="stroke: #000000; stroke-width: 0.8"/>
      </defs>
      <g>
       <use xlink:href="#m9ef4a1e34d" x="54" y="242.116364" style="stroke: #000000; stroke-width: 0.8"/>
      </g>
     </g>
     <g id="text_7">
      <!-- 0 -->
      <g transform="translate(41.459375 246.166364)scale(0.1 -0.1)">
       <use xlink:href="#STHeitiTC-Medium-30"/>
      </g>
     </g>
    </g>
    <g id="ytick_2">
     <g id="line2d_7">
      <g>
       <use xlink:href="#m9ef4a1e34d" x="54" y="208.884748" style="stroke: #000000; stroke-width: 0.8"/>
      </g>
     </g>
     <g id="text_8">
      <!-- 200 -->
      <g transform="translate(30.378125 212.934748)scale(0.1 -0.1)">
       <use xlink:href="#STHeitiTC-Medium-32"/>
       <use xlink:href="#STHeitiTC-Medium-30" x="55.399994"/>
       <use xlink:href="#STHeitiTC-Medium-30" x="110.799988"/>
      </g>
     </g>
    </g>
    <g id="ytick_3">
     <g id="line2d_8">
      <g>
       <use xlink:href="#m9ef4a1e34d" x="54" y="175.653132" style="stroke: #000000; stroke-width: 0.8"/>
      </g>
     </g>
     <g id="text_9">
      <!-- 400 -->
      <g transform="translate(30.378125 179.703132)scale(0.1 -0.1)">
       <defs>
        <path id="STHeitiTC-Medium-34" d="M 3418 1453 
L 2861 1453 
L 2861 384 
L 2317 384 
L 2317 1453 
L 70 1453 
L 2701 5184 
L 2861 5184 
L 2861 1984 
L 3418 1984 
L 3418 1453 
z
M 2317 1984 
L 2317 3712 
L 1094 1984 
L 2317 1984 
z
" transform="scale(0.015625)"/>
       </defs>
       <use xlink:href="#STHeitiTC-Medium-34"/>
       <use xlink:href="#STHeitiTC-Medium-30" x="55.399994"/>
       <use xlink:href="#STHeitiTC-Medium-30" x="110.799988"/>
      </g>
     </g>
    </g>
    <g id="ytick_4">
     <g id="line2d_9">
      <g>
       <use xlink:href="#m9ef4a1e34d" x="54" y="142.421517" style="stroke: #000000; stroke-width: 0.8"/>
      </g>
     </g>
     <g id="text_10">
      <!-- 600 -->
      <g transform="translate(30.378125 146.471517)scale(0.1 -0.1)">
       <defs>
        <path id="STHeitiTC-Medium-36" d="M 1594 3098 
Q 1798 3155 1984 3155 
Q 2515 3155 2912 2732 
Q 3309 2310 3309 1708 
Q 3309 1107 2880 688 
Q 2451 269 1830 269 
Q 1210 269 797 691 
Q 384 1114 384 1722 
Q 384 2016 499 2326 
Q 614 2637 915 3085 
L 2336 5203 
L 2797 4915 
L 1594 3098 
z
M 1843 806 
Q 2221 806 2493 1075 
Q 2765 1344 2765 1728 
Q 2765 2112 2496 2381 
Q 2227 2650 1843 2650 
Q 1459 2650 1190 2381 
Q 922 2112 922 1728 
Q 922 1344 1194 1075 
Q 1466 806 1843 806 
z
" transform="scale(0.015625)"/>
       </defs>
       <use xlink:href="#STHeitiTC-Medium-36"/>
       <use xlink:href="#STHeitiTC-Medium-30" x="55.399994"/>
       <use xlink:href="#STHeitiTC-Medium-30" x="110.799988"/>
      </g>
     </g>
    </g>
    <g id="ytick_5">
     <g id="line2d_10">
      <g>
       <use xlink:href="#m9ef4a1e34d" x="54" y="109.189901" style="stroke: #000000; stroke-width: 0.8"/>
      </g>
     </g>
     <g id="text_11">
      <!-- 800 -->
      <g transform="translate(30.378125 113.239901)scale(0.1 -0.1)">
       <defs>
        <path id="STHeitiTC-Medium-38" d="M 2547 2950 
Q 3373 2522 3373 1747 
Q 3373 1114 2928 691 
Q 2483 269 1763 269 
Q 1043 269 608 691 
Q 173 1114 173 1709 
Q 173 2515 1018 2950 
Q 390 3315 390 3942 
Q 390 4435 800 4809 
Q 1210 5184 1782 5184 
Q 2355 5184 2758 4819 
Q 3162 4454 3162 3930 
Q 3162 3322 2547 2950 
z
M 1792 3181 
Q 2118 3181 2364 3411 
Q 2611 3642 2611 3939 
Q 2611 4237 2380 4445 
Q 2150 4653 1785 4653 
Q 1421 4653 1184 4445 
Q 947 4237 947 3939 
Q 947 3642 1203 3411 
Q 1459 3181 1792 3181 
z
M 1773 794 
Q 2234 794 2528 1069 
Q 2822 1344 2822 1728 
Q 2822 2112 2518 2393 
Q 2214 2675 1782 2675 
Q 1350 2675 1036 2384 
Q 723 2093 723 1699 
Q 723 1306 1014 1050 
Q 1306 794 1773 794 
z
" transform="scale(0.015625)"/>
       </defs>
       <use xlink:href="#STHeitiTC-Medium-38"/>
       <use xlink:href="#STHeitiTC-Medium-30" x="55.399994"/>
       <use xlink:href="#STHeitiTC-Medium-30" x="110.799988"/>
      </g>
     </g>
    </g>
    <g id="ytick_6">
     <g id="line2d_11">
      <g>
       <use xlink:href="#m9ef4a1e34d" x="54" y="75.958285" style="stroke: #000000; stroke-width: 0.8"/>
      </g>
     </g>
     <g id="text_12">
      <!-- 1000 -->
      <g transform="translate(24.8375 80.008285)scale(0.1 -0.1)">
       <use xlink:href="#STHeitiTC-Medium-31"/>
       <use xlink:href="#STHeitiTC-Medium-30" x="55.399994"/>
       <use xlink:href="#STHeitiTC-Medium-30" x="110.799988"/>
       <use xlink:href="#STHeitiTC-Medium-30" x="166.199982"/>
      </g>
     </g>
    </g>
    <g id="ytick_7">
     <g id="line2d_12">
      <g>
       <use xlink:href="#m9ef4a1e34d" x="54" y="42.72667" style="stroke: #000000; stroke-width: 0.8"/>
      </g>
     </g>
     <g id="text_13">
      <!-- 1200 -->
      <g transform="translate(24.8375 46.77667)scale(0.1 -0.1)">
       <use xlink:href="#STHeitiTC-Medium-31"/>
       <use xlink:href="#STHeitiTC-Medium-32" x="55.399994"/>
       <use xlink:href="#STHeitiTC-Medium-30" x="110.799988"/>
       <use xlink:href="#STHeitiTC-Medium-30" x="166.199982"/>
      </g>
     </g>
    </g>
    <g id="text_14">
     <!-- inNums -->
     <g transform="translate(18.975937 167.667344)rotate(-90)scale(0.14 -0.14)">
      <defs>
       <path id="STHeitiTC-Medium-69" d="M 640 5184 
Q 813 5184 931 5065 
Q 1050 4947 1050 4777 
Q 1050 4608 931 4489 
Q 813 4371 643 4371 
Q 474 4371 355 4492 
Q 237 4614 237 4777 
Q 237 4941 355 5062 
Q 474 5184 640 5184 
z
M 909 384 
L 378 384 
L 378 3872 
L 909 3872 
L 909 384 
z
" transform="scale(0.015625)"/>
       <path id="STHeitiTC-Medium-6e" d="M 3501 384 
L 2976 384 
L 2976 2048 
Q 2976 2624 2921 2832 
Q 2867 3040 2761 3184 
Q 2656 3328 2493 3398 
Q 2330 3469 2096 3469 
Q 1862 3469 1638 3353 
Q 1414 3238 1254 3033 
Q 1094 2829 1033 2598 
Q 973 2368 973 1677 
L 973 384 
L 442 384 
L 442 3872 
L 973 3872 
L 973 3347 
Q 1491 3962 2202 3962 
Q 2579 3962 2886 3766 
Q 3194 3571 3347 3228 
Q 3501 2886 3501 2176 
L 3501 384 
z
" transform="scale(0.015625)"/>
       <path id="STHeitiTC-Medium-4e" d="M 4218 384 
L 4051 384 
L 1082 3782 
L 1082 384 
L 518 384 
L 518 5069 
L 685 5069 
L 3674 1626 
L 3674 5069 
L 4218 5069 
L 4218 384 
z
" transform="scale(0.015625)"/>
       <path id="STHeitiTC-Medium-6d" d="M 5613 384 
L 5075 384 
L 5075 2285 
Q 5075 2739 5020 2950 
Q 4966 3162 4784 3306 
Q 4602 3450 4304 3450 
Q 4006 3450 3744 3258 
Q 3482 3066 3379 2736 
Q 3277 2406 3277 1760 
L 3277 384 
L 2758 384 
L 2758 2170 
Q 2758 2694 2704 2924 
Q 2650 3155 2464 3302 
Q 2278 3450 1996 3450 
Q 1715 3450 1462 3274 
Q 1210 3098 1088 2813 
Q 966 2528 966 1869 
L 966 384 
L 442 384 
L 442 3872 
L 966 3872 
L 966 3379 
Q 1414 3962 2086 3962 
Q 2451 3962 2748 3766 
Q 3046 3571 3174 3213 
Q 3392 3578 3718 3770 
Q 4045 3962 4410 3962 
Q 4909 3962 5261 3610 
Q 5613 3258 5613 2285 
L 5613 384 
z
" transform="scale(0.015625)"/>
       <path id="STHeitiTC-Medium-73" d="M 2259 3462 
L 1920 3110 
Q 1542 3462 1229 3462 
Q 1030 3462 896 3337 
Q 762 3213 762 3030 
Q 762 2848 912 2710 
Q 1062 2573 1446 2371 
Q 1830 2170 2038 1926 
Q 2246 1683 2246 1331 
Q 2246 883 1936 576 
Q 1626 269 1171 269 
Q 538 269 115 806 
L 448 1178 
Q 794 774 1152 774 
Q 1395 774 1568 934 
Q 1741 1094 1741 1308 
Q 1741 1523 1584 1667 
Q 1427 1811 1046 2003 
Q 666 2195 470 2428 
Q 275 2662 275 3043 
Q 275 3424 553 3693 
Q 832 3962 1289 3962 
Q 1747 3962 2259 3462 
z
" transform="scale(0.015625)"/>
      </defs>
      <use xlink:href="#STHeitiTC-Medium-69"/>
      <use xlink:href="#STHeitiTC-Medium-6e" x="19.999985"/>
      <use xlink:href="#STHeitiTC-Medium-4e" x="80.999969"/>
      <use xlink:href="#STHeitiTC-Medium-75" x="154.999954"/>
      <use xlink:href="#STHeitiTC-Medium-6d" x="215.799942"/>
      <use xlink:href="#STHeitiTC-Medium-73" x="309.59993"/>
     </g>
    </g>
   </g>
   <g id="line2d_13">
    <path d="M 69.218182 242.033285 
L 82.451383 242.116364 
L 95.684585 242.116364 
L 108.917787 242.116364 
L 122.150988 242.060978 
L 135.38419 241.25788 
L 148.617391 228.602173 
L 161.850593 179.530154 
L 175.083794 160.671212 
L 188.316996 203.955392 
L 201.550198 214.451044 
L 214.783399 213.620253 
L 228.016601 209.632459 
L 241.249802 212.290989 
L 254.483004 211.598663 
L 267.716206 207.666255 
L 280.949407 201.795337 
L 294.182609 102.65435 
L 307.41581 64.825694 
L 320.649012 154.21874 
L 333.882213 163.634365 
L 347.115415 181.496358 
L 360.348617 216.361861 
L 373.581818 241.340959 
" clip-path="url(#pbfa77d3eb3)" style="fill: none; stroke: #1f77b4; stroke-width: 1.5; stroke-linecap: square"/>
    <defs>
     <path id="md085fba702" d="M 0 3 
C 0.795609 3 1.55874 2.683901 2.12132 2.12132 
C 2.683901 1.55874 3 0.795609 3 0 
C 3 -0.795609 2.683901 -1.55874 2.12132 -2.12132 
C 1.55874 -2.683901 0.795609 -3 0 -3 
C -0.795609 -3 -1.55874 -2.683901 -2.12132 -2.12132 
C -2.683901 -1.55874 -3 -0.795609 -3 0 
C -3 0.795609 -2.683901 1.55874 -2.12132 2.12132 
C -1.55874 2.683901 -0.795609 3 0 3 
z
" style="stroke: #1f77b4"/>
    </defs>
    <g clip-path="url(#pbfa77d3eb3)">
     <use xlink:href="#md085fba702" x="69.218182" y="242.033285" style="fill: #1f77b4; stroke: #1f77b4"/>
     <use xlink:href="#md085fba702" x="82.451383" y="242.116364" style="fill: #1f77b4; stroke: #1f77b4"/>
     <use xlink:href="#md085fba702" x="95.684585" y="242.116364" style="fill: #1f77b4; stroke: #1f77b4"/>
     <use xlink:href="#md085fba702" x="108.917787" y="242.116364" style="fill: #1f77b4; stroke: #1f77b4"/>
     <use xlink:href="#md085fba702" x="122.150988" y="242.060978" style="fill: #1f77b4; stroke: #1f77b4"/>
     <use xlink:href="#md085fba702" x="135.38419" y="241.25788" style="fill: #1f77b4; stroke: #1f77b4"/>
     <use xlink:href="#md085fba702" x="148.617391" y="228.602173" style="fill: #1f77b4; stroke: #1f77b4"/>
     <use xlink:href="#md085fba702" x="161.850593" y="179.530154" style="fill: #1f77b4; stroke: #1f77b4"/>
     <use xlink:href="#md085fba702" x="175.083794" y="160.671212" style="fill: #1f77b4; stroke: #1f77b4"/>
     <use xlink:href="#md085fba702" x="188.316996" y="203.955392" style="fill: #1f77b4; stroke: #1f77b4"/>
     <use xlink:href="#md085fba702" x="201.550198" y="214.451044" style="fill: #1f77b4; stroke: #1f77b4"/>
     <use xlink:href="#md085fba702" x="214.783399" y="213.620253" style="fill: #1f77b4; stroke: #1f77b4"/>
     <use xlink:href="#md085fba702" x="228.016601" y="209.632459" style="fill: #1f77b4; stroke: #1f77b4"/>
     <use xlink:href="#md085fba702" x="241.249802" y="212.290989" style="fill: #1f77b4; stroke: #1f77b4"/>
     <use xlink:href="#md085fba702" x="254.483004" y="211.598663" style="fill: #1f77b4; stroke: #1f77b4"/>
     <use xlink:href="#md085fba702" x="267.716206" y="207.666255" style="fill: #1f77b4; stroke: #1f77b4"/>
     <use xlink:href="#md085fba702" x="280.949407" y="201.795337" style="fill: #1f77b4; stroke: #1f77b4"/>
     <use xlink:href="#md085fba702" x="294.182609" y="102.65435" style="fill: #1f77b4; stroke: #1f77b4"/>
     <use xlink:href="#md085fba702" x="307.41581" y="64.825694" style="fill: #1f77b4; stroke: #1f77b4"/>
     <use xlink:href="#md085fba702" x="320.649012" y="154.21874" style="fill: #1f77b4; stroke: #1f77b4"/>
     <use xlink:href="#md085fba702" x="333.882213" y="163.634365" style="fill: #1f77b4; stroke: #1f77b4"/>
     <use xlink:href="#md085fba702" x="347.115415" y="181.496358" style="fill: #1f77b4; stroke: #1f77b4"/>
     <use xlink:href="#md085fba702" x="360.348617" y="216.361861" style="fill: #1f77b4; stroke: #1f77b4"/>
     <use xlink:href="#md085fba702" x="373.581818" y="241.340959" style="fill: #1f77b4; stroke: #1f77b4"/>
    </g>
   </g>
   <g id="line2d_14">
    <path d="M 69.218182 242.088671 
L 82.451383 242.088671 
L 95.684585 242.116364 
L 108.917787 242.116364 
L 122.150988 242.088671 
L 135.38419 241.617889 
L 148.617391 232.202265 
L 161.850593 184.985678 
L 175.083794 161.862012 
L 188.316996 204.39848 
L 201.550198 216.915722 
L 214.783399 212.983314 
L 228.016601 210.657101 
L 241.249802 210.795566 
L 254.483004 208.330888 
L 267.716206 204.12155 
L 280.949407 199.829133 
L 294.182609 99.801969 
L 307.41581 72.081263 
L 320.649012 156.212637 
L 333.882213 158.871166 
L 347.115415 174.794649 
L 360.348617 211.792514 
L 373.581818 240.565555 
" clip-path="url(#pbfa77d3eb3)" style="fill: none; stroke: #ff7f0e; stroke-width: 1.5; stroke-linecap: square"/>
    <defs>
     <path id="m4e466e4d6f" d="M 0 3 
C 0.795609 3 1.55874 2.683901 2.12132 2.12132 
C 2.683901 1.55874 3 0.795609 3 0 
C 3 -0.795609 2.683901 -1.55874 2.12132 -2.12132 
C 1.55874 -2.683901 0.795609 -3 0 -3 
C -0.795609 -3 -1.55874 -2.683901 -2.12132 -2.12132 
C -2.683901 -1.55874 -3 -0.795609 -3 0 
C -3 0.795609 -2.683901 1.55874 -2.12132 2.12132 
C -1.55874 2.683901 -0.795609 3 0 3 
z
" style="stroke: #ff7f0e"/>
    </defs>
    <g clip-path="url(#pbfa77d3eb3)">
     <use xlink:href="#m4e466e4d6f" x="69.218182" y="242.088671" style="fill: #ff7f0e; stroke: #ff7f0e"/>
     <use xlink:href="#m4e466e4d6f" x="82.451383" y="242.088671" style="fill: #ff7f0e; stroke: #ff7f0e"/>
     <use xlink:href="#m4e466e4d6f" x="95.684585" y="242.116364" style="fill: #ff7f0e; stroke: #ff7f0e"/>
     <use xlink:href="#m4e466e4d6f" x="108.917787" y="242.116364" style="fill: #ff7f0e; stroke: #ff7f0e"/>
     <use xlink:href="#m4e466e4d6f" x="122.150988" y="242.088671" style="fill: #ff7f0e; stroke: #ff7f0e"/>
     <use xlink:href="#m4e466e4d6f" x="135.38419" y="241.617889" style="fill: #ff7f0e; stroke: #ff7f0e"/>
     <use xlink:href="#m4e466e4d6f" x="148.617391" y="232.202265" style="fill: #ff7f0e; stroke: #ff7f0e"/>
     <use xlink:href="#m4e466e4d6f" x="161.850593" y="184.985678" style="fill: #ff7f0e; stroke: #ff7f0e"/>
     <use xlink:href="#m4e466e4d6f" x="175.083794" y="161.862012" style="fill: #ff7f0e; stroke: #ff7f0e"/>
     <use xlink:href="#m4e466e4d6f" x="188.316996" y="204.39848" style="fill: #ff7f0e; stroke: #ff7f0e"/>
     <use xlink:href="#m4e466e4d6f" x="201.550198" y="216.915722" style="fill: #ff7f0e; stroke: #ff7f0e"/>
     <use xlink:href="#m4e466e4d6f" x="214.783399" y="212.983314" style="fill: #ff7f0e; stroke: #ff7f0e"/>
     <use xlink:href="#m4e466e4d6f" x="228.016601" y="210.657101" style="fill: #ff7f0e; stroke: #ff7f0e"/>
     <use xlink:href="#m4e466e4d6f" x="241.249802" y="210.795566" style="fill: #ff7f0e; stroke: #ff7f0e"/>
     <use xlink:href="#m4e466e4d6f" x="254.483004" y="208.330888" style="fill: #ff7f0e; stroke: #ff7f0e"/>
     <use xlink:href="#m4e466e4d6f" x="267.716206" y="204.12155" style="fill: #ff7f0e; stroke: #ff7f0e"/>
     <use xlink:href="#m4e466e4d6f" x="280.949407" y="199.829133" style="fill: #ff7f0e; stroke: #ff7f0e"/>
     <use xlink:href="#m4e466e4d6f" x="294.182609" y="99.801969" style="fill: #ff7f0e; stroke: #ff7f0e"/>
     <use xlink:href="#m4e466e4d6f" x="307.41581" y="72.081263" style="fill: #ff7f0e; stroke: #ff7f0e"/>
     <use xlink:href="#m4e466e4d6f" x="320.649012" y="156.212637" style="fill: #ff7f0e; stroke: #ff7f0e"/>
     <use xlink:href="#m4e466e4d6f" x="333.882213" y="158.871166" style="fill: #ff7f0e; stroke: #ff7f0e"/>
     <use xlink:href="#m4e466e4d6f" x="347.115415" y="174.794649" style="fill: #ff7f0e; stroke: #ff7f0e"/>
     <use xlink:href="#m4e466e4d6f" x="360.348617" y="211.792514" style="fill: #ff7f0e; stroke: #ff7f0e"/>
     <use xlink:href="#m4e466e4d6f" x="373.581818" y="240.565555" style="fill: #ff7f0e; stroke: #ff7f0e"/>
    </g>
   </g>
   <g id="line2d_15">
    <path d="M 69.218182 242.088671 
L 82.451383 242.116364 
L 95.684585 242.116364 
L 108.917787 242.116364 
L 122.150988 242.060978 
L 135.38419 241.368652 
L 148.617391 233.697688 
L 161.850593 186.896496 
L 175.083794 165.960578 
L 188.316996 207.333939 
L 201.550198 217.552661 
L 214.783399 215.863387 
L 228.016601 210.214013 
L 241.249802 211.764821 
L 254.483004 208.524739 
L 267.716206 204.232322 
L 280.949407 194.927469 
L 294.182609 89.749406 
L 307.41581 44.443636 
L 320.649012 142.753833 
L 333.882213 164.852857 
L 347.115415 178.11781 
L 360.348617 207.195474 
L 373.581818 240.454783 
" clip-path="url(#pbfa77d3eb3)" style="fill: none; stroke: #2ca02c; stroke-width: 1.5; stroke-linecap: square"/>
    <defs>
     <path id="m807221b16d" d="M 0 3 
C 0.795609 3 1.55874 2.683901 2.12132 2.12132 
C 2.683901 1.55874 3 0.795609 3 0 
C 3 -0.795609 2.683901 -1.55874 2.12132 -2.12132 
C 1.55874 -2.683901 0.795609 -3 0 -3 
C -0.795609 -3 -1.55874 -2.683901 -2.12132 -2.12132 
C -2.683901 -1.55874 -3 -0.795609 -3 0 
C -3 0.795609 -2.683901 1.55874 -2.12132 2.12132 
C -1.55874 2.683901 -0.795609 3 0 3 
z
" style="stroke: #2ca02c"/>
    </defs>
    <g clip-path="url(#pbfa77d3eb3)">
     <use xlink:href="#m807221b16d" x="69.218182" y="242.088671" style="fill: #2ca02c; stroke: #2ca02c"/>
     <use xlink:href="#m807221b16d" x="82.451383" y="242.116364" style="fill: #2ca02c; stroke: #2ca02c"/>
     <use xlink:href="#m807221b16d" x="95.684585" y="242.116364" style="fill: #2ca02c; stroke: #2ca02c"/>
     <use xlink:href="#m807221b16d" x="108.917787" y="242.116364" style="fill: #2ca02c; stroke: #2ca02c"/>
     <use xlink:href="#m807221b16d" x="122.150988" y="242.060978" style="fill: #2ca02c; stroke: #2ca02c"/>
     <use xlink:href="#m807221b16d" x="135.38419" y="241.368652" style="fill: #2ca02c; stroke: #2ca02c"/>
     <use xlink:href="#m807221b16d" x="148.617391" y="233.697688" style="fill: #2ca02c; stroke: #2ca02c"/>
     <use xlink:href="#m807221b16d" x="161.850593" y="186.896496" style="fill: #2ca02c; stroke: #2ca02c"/>
     <use xlink:href="#m807221b16d" x="175.083794" y="165.960578" style="fill: #2ca02c; stroke: #2ca02c"/>
     <use xlink:href="#m807221b16d" x="188.316996" y="207.333939" style="fill: #2ca02c; stroke: #2ca02c"/>
     <use xlink:href="#m807221b16d" x="201.550198" y="217.552661" style="fill: #2ca02c; stroke: #2ca02c"/>
     <use xlink:href="#m807221b16d" x="214.783399" y="215.863387" style="fill: #2ca02c; stroke: #2ca02c"/>
     <use xlink:href="#m807221b16d" x="228.016601" y="210.214013" style="fill: #2ca02c; stroke: #2ca02c"/>
     <use xlink:href="#m807221b16d" x="241.249802" y="211.764821" style="fill: #2ca02c; stroke: #2ca02c"/>
     <use xlink:href="#m807221b16d" x="254.483004" y="208.524739" style="fill: #2ca02c; stroke: #2ca02c"/>
     <use xlink:href="#m807221b16d" x="267.716206" y="204.232322" style="fill: #2ca02c; stroke: #2ca02c"/>
     <use xlink:href="#m807221b16d" x="280.949407" y="194.927469" style="fill: #2ca02c; stroke: #2ca02c"/>
     <use xlink:href="#m807221b16d" x="294.182609" y="89.749406" style="fill: #2ca02c; stroke: #2ca02c"/>
     <use xlink:href="#m807221b16d" x="307.41581" y="44.443636" style="fill: #2ca02c; stroke: #2ca02c"/>
     <use xlink:href="#m807221b16d" x="320.649012" y="142.753833" style="fill: #2ca02c; stroke: #2ca02c"/>
     <use xlink:href="#m807221b16d" x="333.882213" y="164.852857" style="fill: #2ca02c; stroke: #2ca02c"/>
     <use xlink:href="#m807221b16d" x="347.115415" y="178.11781" style="fill: #2ca02c; stroke: #2ca02c"/>
     <use xlink:href="#m807221b16d" x="360.348617" y="207.195474" style="fill: #2ca02c; stroke: #2ca02c"/>
     <use xlink:href="#m807221b16d" x="373.581818" y="240.454783" style="fill: #2ca02c; stroke: #2ca02c"/>
    </g>
   </g>
   <g id="line2d_16">
    <path d="M 69.218182 242.116364 
L 82.451383 242.116364 
L 95.684585 242.116364 
L 108.917787 242.088671 
L 122.150988 242.033285 
L 135.38419 241.590196 
L 148.617391 235.746971 
L 161.850593 227.632918 
L 175.083794 220.875823 
L 188.316996 214.672588 
L 201.550198 204.370787 
L 214.783399 202.792285 
L 228.016601 195.48133 
L 241.249802 192.961265 
L 254.483004 186.287249 
L 267.716206 188.585769 
L 280.949407 191.410457 
L 294.182609 191.16122 
L 307.41581 199.469124 
L 320.649012 208.330888 
L 333.882213 209.798617 
L 347.115415 215.835694 
L 360.348617 228.519094 
L 373.581818 241.008643 
" clip-path="url(#pbfa77d3eb3)" style="fill: none; stroke: #d62728; stroke-width: 1.5; stroke-linecap: square"/>
    <defs>
     <path id="mf4e4177afa" d="M 0 3 
C 0.795609 3 1.55874 2.683901 2.12132 2.12132 
C 2.683901 1.55874 3 0.795609 3 0 
C 3 -0.795609 2.683901 -1.55874 2.12132 -2.12132 
C 1.55874 -2.683901 0.795609 -3 0 -3 
C -0.795609 -3 -1.55874 -2.683901 -2.12132 -2.12132 
C -2.683901 -1.55874 -3 -0.795609 -3 0 
C -3 0.795609 -2.683901 1.55874 -2.12132 2.12132 
C -1.55874 2.683901 -0.795609 3 0 3 
z
" style="stroke: #d62728"/>
    </defs>
    <g clip-path="url(#pbfa77d3eb3)">
     <use xlink:href="#mf4e4177afa" x="69.218182" y="242.116364" style="fill: #d62728; stroke: #d62728"/>
     <use xlink:href="#mf4e4177afa" x="82.451383" y="242.116364" style="fill: #d62728; stroke: #d62728"/>
     <use xlink:href="#mf4e4177afa" x="95.684585" y="242.116364" style="fill: #d62728; stroke: #d62728"/>
     <use xlink:href="#mf4e4177afa" x="108.917787" y="242.088671" style="fill: #d62728; stroke: #d62728"/>
     <use xlink:href="#mf4e4177afa" x="122.150988" y="242.033285" style="fill: #d62728; stroke: #d62728"/>
     <use xlink:href="#mf4e4177afa" x="135.38419" y="241.590196" style="fill: #d62728; stroke: #d62728"/>
     <use xlink:href="#mf4e4177afa" x="148.617391" y="235.746971" style="fill: #d62728; stroke: #d62728"/>
     <use xlink:href="#mf4e4177afa" x="161.850593" y="227.632918" style="fill: #d62728; stroke: #d62728"/>
     <use xlink:href="#mf4e4177afa" x="175.083794" y="220.875823" style="fill: #d62728; stroke: #d62728"/>
     <use xlink:href="#mf4e4177afa" x="188.316996" y="214.672588" style="fill: #d62728; stroke: #d62728"/>
     <use xlink:href="#mf4e4177afa" x="201.550198" y="204.370787" style="fill: #d62728; stroke: #d62728"/>
     <use xlink:href="#mf4e4177afa" x="214.783399" y="202.792285" style="fill: #d62728; stroke: #d62728"/>
     <use xlink:href="#mf4e4177afa" x="228.016601" y="195.48133" style="fill: #d62728; stroke: #d62728"/>
     <use xlink:href="#mf4e4177afa" x="241.249802" y="192.961265" style="fill: #d62728; stroke: #d62728"/>
     <use xlink:href="#mf4e4177afa" x="254.483004" y="186.287249" style="fill: #d62728; stroke: #d62728"/>
     <use xlink:href="#mf4e4177afa" x="267.716206" y="188.585769" style="fill: #d62728; stroke: #d62728"/>
     <use xlink:href="#mf4e4177afa" x="280.949407" y="191.410457" style="fill: #d62728; stroke: #d62728"/>
     <use xlink:href="#mf4e4177afa" x="294.182609" y="191.16122" style="fill: #d62728; stroke: #d62728"/>
     <use xlink:href="#mf4e4177afa" x="307.41581" y="199.469124" style="fill: #d62728; stroke: #d62728"/>
     <use xlink:href="#mf4e4177afa" x="320.649012" y="208.330888" style="fill: #d62728; stroke: #d62728"/>
     <use xlink:href="#mf4e4177afa" x="333.882213" y="209.798617" style="fill: #d62728; stroke: #d62728"/>
     <use xlink:href="#mf4e4177afa" x="347.115415" y="215.835694" style="fill: #d62728; stroke: #d62728"/>
     <use xlink:href="#mf4e4177afa" x="360.348617" y="228.519094" style="fill: #d62728; stroke: #d62728"/>
     <use xlink:href="#mf4e4177afa" x="373.581818" y="241.008643" style="fill: #d62728; stroke: #d62728"/>
    </g>
   </g>
   <g id="patch_3">
    <path d="M 54 252 
L 54 34.56 
" style="fill: none; stroke: #000000; stroke-width: 0.8; stroke-linejoin: miter; stroke-linecap: square"/>
   </g>
   <g id="patch_4">
    <path d="M 388.8 252 
L 388.8 34.56 
" style="fill: none; stroke: #000000; stroke-width: 0.8; stroke-linejoin: miter; stroke-linecap: square"/>
   </g>
   <g id="patch_5">
    <path d="M 54 252 
L 388.8 252 
" style="fill: none; stroke: #000000; stroke-width: 0.8; stroke-linejoin: miter; stroke-linecap: square"/>
   </g>
   <g id="patch_6">
    <path d="M 54 34.56 
L 388.8 34.56 
" style="fill: none; stroke: #000000; stroke-width: 0.8; stroke-linejoin: miter; stroke-linecap: square"/>
   </g>
   <g id="legend_1">
    <g id="patch_7">
     <path d="M 63.8 126.56625 
L 136.6 126.56625 
Q 139.4 126.56625 139.4 123.76625 
L 139.4 44.36 
Q 139.4 41.56 136.6 41.56 
L 63.8 41.56 
Q 61 41.56 61 44.36 
L 61 123.76625 
Q 61 126.56625 63.8 126.56625 
z
" style="fill: #ffffff; opacity: 0.8; stroke: #cccccc; stroke-linejoin: miter"/>
    </g>
    <g id="line2d_17">
     <path d="M 66.6 53.6 
L 80.6 53.6 
L 94.6 53.6 
" style="fill: none; stroke: #1f77b4; stroke-width: 1.5; stroke-linecap: square"/>
     <g>
      <use xlink:href="#md085fba702" x="80.6" y="53.6" style="fill: #1f77b4; stroke: #1f77b4"/>
     </g>
    </g>
    <g id="text_15">
     <!-- 2 -->
     <g transform="translate(105.8 58.5)scale(0.14 -0.14)">
      <use xlink:href="#STHeitiTC-Medium-32"/>
     </g>
    </g>
    <g id="line2d_18">
     <path d="M 66.6 73.801563 
L 80.6 73.801563 
L 94.6 73.801563 
" style="fill: none; stroke: #ff7f0e; stroke-width: 1.5; stroke-linecap: square"/>
     <g>
      <use xlink:href="#m4e466e4d6f" x="80.6" y="73.801563" style="fill: #ff7f0e; stroke: #ff7f0e"/>
     </g>
    </g>
    <g id="text_16">
     <!-- 3 -->
     <g transform="translate(105.8 78.701563)scale(0.14 -0.14)">
      <defs>
       <path id="STHeitiTC-Medium-33" d="M 2554 3021 
Q 2931 2835 3139 2508 
Q 3347 2182 3347 1798 
Q 3347 1171 2889 720 
Q 2432 269 1734 269 
Q 1107 269 707 630 
Q 307 992 166 1702 
L 710 1702 
Q 832 1248 1072 1027 
Q 1312 806 1757 806 
Q 2202 806 2502 1084 
Q 2803 1363 2803 1785 
Q 2803 2208 2460 2457 
Q 2118 2707 1453 2720 
L 1453 3232 
Q 1933 3232 2227 3437 
Q 2522 3642 2522 3946 
Q 2522 4250 2294 4451 
Q 2067 4653 1744 4653 
Q 1421 4653 1219 4470 
Q 1018 4288 877 3917 
L 320 3917 
Q 461 4531 832 4857 
Q 1203 5184 1747 5184 
Q 2291 5184 2691 4825 
Q 3091 4467 3091 3955 
Q 3091 3366 2554 3021 
z
" transform="scale(0.015625)"/>
      </defs>
      <use xlink:href="#STHeitiTC-Medium-33"/>
     </g>
    </g>
    <g id="line2d_19">
     <path d="M 66.6 94.003125 
L 80.6 94.003125 
L 94.6 94.003125 
" style="fill: none; stroke: #2ca02c; stroke-width: 1.5; stroke-linecap: square"/>
     <g>
      <use xlink:href="#m807221b16d" x="80.6" y="94.003125" style="fill: #2ca02c; stroke: #2ca02c"/>
     </g>
    </g>
    <g id="text_17">
     <!-- 4 -->
     <g transform="translate(105.8 98.903125)scale(0.14 -0.14)">
      <use xlink:href="#STHeitiTC-Medium-34"/>
     </g>
    </g>
    <g id="line2d_20">
     <path d="M 66.6 114.204688 
L 80.6 114.204688 
L 94.6 114.204688 
" style="fill: none; stroke: #d62728; stroke-width: 1.5; stroke-linecap: square"/>
     <g>
      <use xlink:href="#mf4e4177afa" x="80.6" y="114.204688" style="fill: #d62728; stroke: #d62728"/>
     </g>
    </g>
    <g id="text_18">
     <!-- 元旦 -->
     <g transform="translate(105.8 119.104688)scale(0.14 -0.14)">
      <defs>
       <path id="STHeitiTC-Medium-5143" d="M 2637 2675 
Q 2650 1984 2554 1494 
Q 2458 1005 2246 637 
Q 2035 269 1696 -28 
Q 1357 -326 883 -634 
Q 794 -474 662 -336 
Q 531 -198 378 -109 
Q 870 90 1196 323 
Q 1523 557 1718 877 
Q 1914 1197 1990 1632 
Q 2067 2067 2054 2675 
Q 1600 2675 1187 2665 
Q 774 2656 538 2630 
L 538 3213 
Q 678 3200 883 3193 
Q 1088 3187 1389 3180 
Q 1690 3174 2099 3171 
Q 2509 3168 3059 3168 
Q 3610 3168 4022 3171 
Q 4435 3174 4739 3180 
Q 5043 3187 5248 3193 
Q 5453 3200 5587 3213 
L 5587 2630 
Q 5466 2637 5286 2646 
Q 5107 2656 4892 2662 
Q 4678 2669 4441 2672 
Q 4205 2675 3974 2675 
L 3974 506 
Q 3974 403 3993 342 
Q 4013 282 4080 253 
Q 4147 224 4275 217 
Q 4403 211 4621 211 
Q 4838 211 4976 243 
Q 5114 275 5200 371 
Q 5286 467 5344 643 
Q 5402 819 5459 1107 
Q 5594 941 5725 861 
Q 5856 781 6022 749 
Q 5920 384 5821 173 
Q 5722 -38 5571 -150 
Q 5421 -262 5187 -294 
Q 4954 -326 4582 -326 
Q 4198 -326 3964 -297 
Q 3731 -269 3606 -192 
Q 3482 -115 3443 9 
Q 3405 134 3405 326 
L 3405 2675 
L 2637 2675 
z
M 5011 4205 
Q 4691 4230 4179 4243 
Q 3667 4256 3066 4256 
Q 2464 4256 1952 4243 
Q 1440 4230 1114 4205 
L 1114 4813 
Q 1446 4781 1945 4768 
Q 2445 4755 3046 4755 
Q 3642 4755 4163 4768 
Q 4685 4781 5011 4813 
L 5011 4205 
z
" transform="scale(0.015625)"/>
       <path id="STHeitiTC-Medium-65e6" d="M 5280 4749 
Q 5248 4640 5238 4486 
Q 5229 4333 5229 4096 
L 5229 1306 
Q 5229 1158 5235 1049 
Q 5242 941 5261 832 
Q 5107 845 4940 854 
Q 4774 864 4544 870 
Q 4314 877 4003 880 
Q 3693 883 3258 883 
Q 2822 883 2512 880 
Q 2202 877 1971 870 
Q 1741 864 1574 854 
Q 1408 845 1261 832 
Q 1280 941 1289 1049 
Q 1299 1158 1299 1306 
L 1299 4096 
Q 1299 4250 1283 4442 
Q 1267 4634 1248 4749 
Q 1395 4736 1568 4733 
Q 1741 4730 1971 4723 
Q 2202 4717 2515 4717 
Q 2829 4717 3264 4717 
Q 3699 4717 4012 4717 
Q 4326 4717 4556 4723 
Q 4787 4730 4956 4733 
Q 5126 4736 5280 4749 
z
M 1875 2630 
L 1875 1389 
L 4634 1389 
L 4634 2630 
L 1875 2630 
z
M 4634 3130 
L 4634 4211 
L 1875 4211 
L 1875 3130 
L 4634 3130 
z
M 6003 -429 
Q 5747 -410 5456 -400 
Q 5165 -390 4825 -380 
Q 4486 -371 4083 -368 
Q 3680 -365 3200 -365 
Q 2240 -365 1571 -381 
Q 902 -397 390 -429 
L 390 192 
Q 646 179 940 166 
Q 1235 154 1574 147 
Q 1914 141 2317 137 
Q 2720 134 3200 134 
Q 3680 134 4083 137 
Q 4486 141 4825 147 
Q 5165 154 5456 166 
Q 5747 179 6003 192 
L 6003 -429 
z
" transform="scale(0.015625)"/>
      </defs>
      <use xlink:href="#STHeitiTC-Medium-5143"/>
      <use xlink:href="#STHeitiTC-Medium-65e6" x="99.999985"/>
     </g>
    </g>
   </g>
  </g>
 </g>
 <defs>
  <clipPath id="pbfa77d3eb3">
   <rect x="54" y="34.56" width="334.8" height="217.44"/>
  </clipPath>
 </defs>
</svg>
